<svg xmlns="http://www.w3.org/2000/svg" xmlns:xlink="http://www.w3.org/1999/xlink" width="720" height="450" viewBox="0 0 720 450">
  <defs>
    <style>
      .cls-1 {
        fill: #fff;
      }

      .cls-2 {
        opacity: 0.15;
        clip-path: url(#clip-path);
      }
    </style>
    <clipPath id="clip-path">
      <rect id="Rectangle_38" data-name="Rectangle 38" class="cls-1" width="720" height="450" transform="translate(0 450)"/>
    </clipPath>
  </defs>
  <g id="Mask_Group_1" data-name="Mask Group 1" class="cls-2" transform="translate(0 -450)">
    <g id="Group_72" data-name="Group 72" transform="translate(20 -22)">
      <g id="Group_28" data-name="Group 28" transform="translate(716 504) rotate(90)">
        <g id="Group_28-2" data-name="Group 28" transform="translate(340.277 35.925)">
          <rect id="Rectangle_33" data-name="Rectangle 33" class="cls-1" width="2.313" height="129.315" transform="matrix(0.707, -0.707, 0.707, 0.707, 0, 1.636)"/>
        </g>
        <g id="Group_29" data-name="Group 29" transform="translate(420.535 25.664)">
          <path id="Path_15" data-name="Path 15" class="cls-1" d="M0,148.226A17.423,17.423,0,0,1,5.116,135.82L140.937,0l1.637,1.637L6.754,137.458a15.274,15.274,0,0,0,0,21.535l73.578,73.578-1.637,1.638L5.116,160.631A17.434,17.434,0,0,1,0,148.226Z"/>
        </g>
        <g id="Group_30" data-name="Group 30" transform="translate(227.895)">
          <rect id="Rectangle_34" data-name="Rectangle 34" class="cls-1" width="208.468" height="2.313" transform="translate(0 147.408) rotate(-45)"/>
        </g>
        <g id="Group_32" data-name="Group 32" transform="translate(164.836 197.234)">
          <g id="Group_31" data-name="Group 31" transform="translate(0 0)">
            <path id="Path_16" data-name="Path 16" class="cls-1" d="M0,39.229l1.631-1.638,81.631,81.625a12.736,12.736,0,0,0,17.986,0L216.069,4.4a15.044,15.044,0,0,1,21.255,0l115.8,115.8-1.637,1.638L235.693,6.034a12.759,12.759,0,0,0-17.987,0L102.886,120.86a15.043,15.043,0,0,1-21.255,0Z"/>
          </g>
        </g>
        <g id="Group_33" data-name="Group 33" transform="translate(430.467 249.163)">
          <rect id="Rectangle_35" data-name="Rectangle 35" class="cls-1" width="129.608" height="2.313" transform="matrix(0.707, -0.707, 0.707, 0.707, 0, 91.659)"/>
        </g>
        <g id="Group_35" data-name="Group 35" transform="translate(112.189 525.09)">
          <g id="Group_34" data-name="Group 34">
            <path id="Path_17" data-name="Path 17" class="cls-1" d="M0,169.392,116.324,53.068a15.044,15.044,0,0,1,21.255,0L209.4,124.887a12.767,12.767,0,0,0,17.993,0l114.82-114.82C347.812,4.467,358.8-.044,366.722,0l60.452.357-.013,2.313-60.453-.357c-7.384-.045-17.636,4.167-22.861,9.392l-114.82,114.82a15.074,15.074,0,0,1-21.255,0L135.954,54.706a12.737,12.737,0,0,0-17.987,0L1.644,171.029Z"/>
          </g>
        </g>
        <g id="Group_37" data-name="Group 37" transform="translate(302.982 547.862)">
          <g id="Group_36" data-name="Group 36">
            <path id="Path_18" data-name="Path 18" class="cls-1" d="M0,50.048,1.637,48.41l91.876,91.876a14.479,14.479,0,0,0,20.452,0L254.253,0l1.637,1.637L115.6,141.924a16.8,16.8,0,0,1-23.721,0Z"/>
          </g>
        </g>
        <path id="Path_19" data-name="Path 19" class="cls-1" d="M9.908,6.391A3.511,3.511,0,1,1,6.4,2.88,3.519,3.519,0,0,1,9.908,6.391m2.886,0a6.4,6.4,0,1,0-6.4,6.4,6.392,6.392,0,0,0,6.4-6.4Z" transform="translate(155.521 224.785)"/>
        <path id="Path_20" data-name="Path 20" class="cls-1" d="M9.908,6.391A3.511,3.511,0,1,1,6.4,2.88,3.513,3.513,0,0,1,9.908,6.391m2.88,0a6.394,6.394,0,1,0-6.4,6.4,6.391,6.391,0,0,0,6.4-6.4Z" transform="translate(218.764 145.696)"/>
        <g id="Group_39" data-name="Group 39" transform="translate(210.946 265.632)">
          <g id="Group_38" data-name="Group 38" transform="translate(27.964)">
            <path id="Path_21" data-name="Path 21" class="cls-1" d="M0,180.057,116.744,63.23A15.067,15.067,0,0,1,138,63.224l71.819,71.819a12.765,12.765,0,0,0,18.006.013L363.326,0l1.631,1.638-135.5,135.056a15.078,15.078,0,0,1-21.274-.019L136.362,64.868a12.752,12.752,0,0,0-17.98,0L1.638,181.695Z"/>
          </g>
          <path id="Path_22" data-name="Path 22" class="cls-1" d="M9.908,6.4A3.511,3.511,0,1,1,6.4,2.886,3.513,3.513,0,0,1,9.908,6.4m2.886,0a6.4,6.4,0,1,0-6.4,6.4,6.4,6.4,0,0,0,6.4-6.4Z" transform="translate(18.42 178.617)"/>
          <path id="Path_23" data-name="Path 23" class="cls-1" d="M9.914,6.4A3.511,3.511,0,1,1,6.4,2.886,3.513,3.513,0,0,1,9.914,6.4m2.88,0a6.4,6.4,0,1,0-6.4,6.4,6.4,6.4,0,0,0,6.4-6.4Z" transform="translate(8.824 211.991)"/>
          <path id="Path_24" data-name="Path 24" class="cls-1" d="M9.914,6.4A3.511,3.511,0,1,1,6.4,2.886,3.513,3.513,0,0,1,9.914,6.4m2.88,0a6.4,6.4,0,1,0-6.4,6.4,6.4,6.4,0,0,0,6.4-6.4Z" transform="translate(0 68.429)"/>
        </g>
        <path id="Path_25" data-name="Path 25" class="cls-1" d="M9.908,6.4A3.511,3.511,0,1,1,6.4,2.886,3.513,3.513,0,0,1,9.908,6.4m2.886,0a6.4,6.4,0,1,0-6.4,6.4,6.4,6.4,0,0,0,6.4-6.4Z" transform="translate(420.363 339.312)"/>
        <g id="Group_41" data-name="Group 41" transform="translate(78.171 567.155)">
          <g id="Group_40" data-name="Group 40" transform="translate(0 7.818)">
            <path id="Path_26" data-name="Path 26" class="cls-1" d="M0,36.3v-.038a14.88,14.88,0,0,1,4.422-10.6L30.36,0l1.625,1.644L6.047,27.321A12.675,12.675,0,0,0,6,45.257l115.8,115.8-1.637,1.637L4.365,46.894A14.944,14.944,0,0,1,0,36.3Z"/>
          </g>
          <path id="Path_27" data-name="Path 27" class="cls-1" d="M9.908,6.4A3.514,3.514,0,1,1,6.391,2.886,3.515,3.515,0,0,1,9.908,6.4m2.88,0a6.394,6.394,0,1,0-6.4,6.4,6.4,6.4,0,0,0,6.4-6.4Z" transform="translate(29.105)"/>
        </g>
        <g id="Group_42" data-name="Group 42" transform="translate(199.981 637.305)">
          <path id="Path_28" data-name="Path 28" class="cls-1" d="M0,36.3v-.038a14.879,14.879,0,0,1,4.422-10.6L30.36,0l1.625,1.644L6.047,27.321A12.675,12.675,0,0,0,6,45.257l115.8,115.8-1.637,1.637L4.365,46.894A14.907,14.907,0,0,1,0,36.3Z"/>
        </g>
        <path id="Path_29" data-name="Path 29" class="cls-1" d="M9.908,6.4A3.514,3.514,0,1,1,6.391,2.886,3.515,3.515,0,0,1,9.908,6.4m2.88,0a6.394,6.394,0,1,0-6.4,6.4,6.4,6.4,0,0,0,6.4-6.4Z" transform="translate(229.086 629.487)"/>
        <g id="Group_44" data-name="Group 44" transform="translate(170.029 458.828)">
          <g id="Group_43" data-name="Group 43" transform="translate(0 10.29)">
            <path id="Path_30" data-name="Path 30" class="cls-1" d="M0,125.626A14.917,14.917,0,0,1,4.384,115l115-115,1.637,1.637-115,115a12.752,12.752,0,0,0,0,17.98l90.647,90.628-1.638,1.638L4.384,136.254A14.942,14.942,0,0,1,0,125.626Z"/>
          </g>
          <path id="Path_31" data-name="Path 31" class="cls-1" d="M9.908,6.391A3.511,3.511,0,1,1,6.4,2.88,3.513,3.513,0,0,1,9.908,6.391m2.886,0a6.4,6.4,0,1,0-6.4,6.4,6.391,6.391,0,0,0,6.4-6.4Z" transform="translate(93.756 233.495)"/>
          <path id="Path_32" data-name="Path 32" class="cls-1" d="M9.908,6.4A3.511,3.511,0,1,1,6.4,2.886,3.513,3.513,0,0,1,9.908,6.4m2.88,0a6.394,6.394,0,1,0-6.4,6.4,6.4,6.4,0,0,0,6.4-6.4Z" transform="translate(118.114)"/>
        </g>
        <g id="Group_46" data-name="Group 46" transform="translate(289.067 144.67)">
          <g id="Group_45" data-name="Group 45">
            <path id="Path_33" data-name="Path 33" class="cls-1" d="M0,220.988v-.025a14.9,14.9,0,0,1,4.409-10.609L216.05,0l1.631,1.644L6.04,212a12.6,12.6,0,0,0-3.727,8.971v.019a12.58,12.58,0,0,0,3.7,8.965L95.77,319.713l-1.638,1.637L4.371,231.59A14.883,14.883,0,0,1,0,220.988Z"/>
          </g>
          <path id="Path_34" data-name="Path 34" class="cls-1" d="M9.914,6.4A3.511,3.511,0,1,1,6.4,2.886,3.513,3.513,0,0,1,9.914,6.4m2.88,0a6.4,6.4,0,1,0-6.4,6.4,6.4,6.4,0,0,0,6.4-6.4Z" transform="translate(92.794 318.547)"/>
        </g>
        <g id="Group_47" data-name="Group 47" transform="translate(21.682 329.218)">
          <path id="Path_35" data-name="Path 35" class="cls-1" d="M0,254.013,250.449,4.844a16.709,16.709,0,0,1,23.562.032l80.567,80.567-1.637,1.638L272.374,6.513a14.39,14.39,0,0,0-20.293-.025L1.631,255.65Z"/>
        </g>
        <g id="Group_49" data-name="Group 49" transform="translate(324.964 405.097)">
          <g id="Group_48" data-name="Group 48" transform="translate(0 9.213)">
            <path id="Path_36" data-name="Path 36" class="cls-1" d="M0,101.211A20.389,20.389,0,0,1,5.989,86.735L92.724,0l1.637,1.638L7.627,88.372a18.228,18.228,0,0,0,0,25.69L167.735,274.17l-1.637,1.637L5.989,115.7A20.466,20.466,0,0,1,0,101.211Z"/>
          </g>
          <path id="Path_37" data-name="Path 37" class="cls-1" d="M9.914,6.4A3.511,3.511,0,1,1,6.4,2.886,3.513,3.513,0,0,1,9.914,6.4m2.88,0a6.4,6.4,0,1,0-6.4,6.4,6.4,6.4,0,0,0,6.4-6.4Z" transform="translate(91.647)"/>
        </g>
        <g id="Group_50" data-name="Group 50" transform="translate(373.291 413.501)">
          <path id="Path_38" data-name="Path 38" class="cls-1" d="M9.908,6.4A3.511,3.511,0,1,1,6.4,2.886,3.513,3.513,0,0,1,9.908,6.4m2.88,0a6.394,6.394,0,1,0-6.4,6.4,6.4,6.4,0,0,0,6.4-6.4Z"/>
        </g>
        <path id="Path_39" data-name="Path 39" class="cls-1" d="M9.914,6.4A3.511,3.511,0,1,1,6.4,2.886,3.513,3.513,0,0,1,9.914,6.4m2.88,0a6.4,6.4,0,1,0-6.4,6.4,6.4,6.4,0,0,0,6.4-6.4Z" transform="translate(12.138 581.784)"/>
        <g id="Group_52" data-name="Group 52" transform="translate(149.118 14.367)">
          <g id="Group_51" data-name="Group 51" transform="translate(9.933)">
            <path id="Path_40" data-name="Path 40" class="cls-1" d="M0,152.679l1.638-1.637,72.195,72.2a12.773,12.773,0,0,0,18.012.025L316.254,0l1.631,1.637L93.476,224.9a15.1,15.1,0,0,1-21.281-.025Z"/>
          </g>
          <path id="Path_41" data-name="Path 41" class="cls-1" d="M9.908,6.391A3.511,3.511,0,1,1,6.4,2.88,3.513,3.513,0,0,1,9.908,6.391m2.88,0a6.394,6.394,0,1,0-6.4,6.4,6.391,6.391,0,0,0,6.4-6.4Z" transform="translate(0 141.733)"/>
        </g>
        <g id="Group_54" data-name="Group 54" transform="translate(76.004 273.749)">
          <g id="Group_53" data-name="Group 53" transform="translate(0 9.825)">
            <path id="Path_42" data-name="Path 42" class="cls-1" d="M39.689,0,4.4,35.247a15.057,15.057,0,0,0-.019,21.262l140.21,140.51,1.637-1.631L6.022,54.871a12.75,12.75,0,0,1,.013-17.993L41.32,1.631Z"/>
          </g>
          <path id="Path_43" data-name="Path 43" class="cls-1" d="M6.391,9.914A3.511,3.511,0,1,1,9.9,6.4,3.513,3.513,0,0,1,6.391,9.914m0,2.88A6.4,6.4,0,1,0,0,6.4a6.393,6.393,0,0,0,6.391,6.4Z" transform="translate(37.427)"/>
        </g>
        <g id="Group_56" data-name="Group 56" transform="translate(29.812 150.493)">
          <g id="Group_55" data-name="Group 55" transform="translate(8.424 10.206)">
            <rect id="Rectangle_36" data-name="Rectangle 36" class="cls-1" width="2.313" height="246.722" transform="translate(0 1.635) rotate(-45)"/>
          </g>
          <path id="Path_44" data-name="Path 44" class="cls-1" d="M9.908,6.4A3.514,3.514,0,1,1,6.391,2.886,3.519,3.519,0,0,1,9.908,6.4m2.88,0a6.394,6.394,0,1,0-6.4,6.4,6.4,6.4,0,0,0,6.4-6.4Z"/>
        </g>
        <g id="Group_58" data-name="Group 58" transform="translate(35.483 98.429)">
          <g id="Group_57" data-name="Group 57">
            <path id="Path_45" data-name="Path 45" class="cls-1" d="M0,96.779l1.637,1.637L93.514,6.54a14.478,14.478,0,0,1,20.452,0L254.253,146.827l1.637-1.637L115.6,4.9a16.8,16.8,0,0,0-23.721,0Z"/>
          </g>
        </g>
        <path id="Path_46" data-name="Path 46" class="cls-1" d="M9.914,6.4A3.511,3.511,0,1,1,6.4,2.886,3.513,3.513,0,0,1,9.914,6.4m2.88,0a6.4,6.4,0,1,0-6.4,6.4,6.4,6.4,0,0,0,6.4-6.4Z" transform="translate(102.644 693.036)"/>
        <path id="Path_47" data-name="Path 47" class="cls-1" d="M9.908,6.391A3.511,3.511,0,1,1,6.4,2.88a3.519,3.519,0,0,1,3.51,3.511m2.886,0a6.4,6.4,0,1,0-6.4,6.4,6.391,6.391,0,0,0,6.4-6.4Z" transform="translate(293.667 586.231)"/>
        <g id="Group_60" data-name="Group 60" transform="translate(326.652 151.366)">
          <g id="Group_59" data-name="Group 59">
            <path id="Path_48" data-name="Path 48" class="cls-1" d="M0,50.048,1.638,48.41l91.876,91.876a14.479,14.479,0,0,0,20.453,0L254.253,0l1.637,1.637L115.6,141.924a16.8,16.8,0,0,1-23.721,0Z"/>
          </g>
        </g>
        <path id="Path_49" data-name="Path 49" class="cls-1" d="M9.914,6.391A3.511,3.511,0,1,1,6.4,2.88,3.519,3.519,0,0,1,9.914,6.391m2.88,0a6.4,6.4,0,1,0-6.4,6.4,6.392,6.392,0,0,0,6.4-6.4Z" transform="translate(317.337 189.729)"/>
        <path id="Path_50" data-name="Path 50" class="cls-1" d="M9.914,6.4A3.511,3.511,0,1,1,6.4,2.886,3.513,3.513,0,0,1,9.914,6.4m2.88,0a6.4,6.4,0,1,0-6.4,6.4,6.4,6.4,0,0,0,6.4-6.4Z" transform="translate(27.079 191.933)"/>
        <path id="Path_51" data-name="Path 51" class="cls-1" d="M9.914,6.4A3.511,3.511,0,1,1,6.4,2.886,3.513,3.513,0,0,1,9.914,6.4m2.88,0a6.4,6.4,0,1,0-6.4,6.4,6.4,6.4,0,0,0,6.4-6.4Z" transform="translate(287.799 242.886)"/>
        <rect id="Rectangle_37" data-name="Rectangle 37" class="cls-1" width="2.313" height="129.933" transform="translate(9.337 658.296) rotate(-44.968)"/>
        <path id="Path_52" data-name="Path 52" class="cls-1" d="M9.908,6.391A3.511,3.511,0,1,1,6.4,2.88,3.518,3.518,0,0,1,9.908,6.391m2.886,0a6.4,6.4,0,1,0-6.4,6.4,6.391,6.391,0,0,0,6.4-6.4Z" transform="translate(0 646.658)"/>
        <path id="Path_53" data-name="Path 53" class="cls-1" d="M9.914,6.391A3.511,3.511,0,1,1,6.4,2.88,3.519,3.519,0,0,1,9.914,6.391m2.88,0a6.4,6.4,0,1,0-6.4,6.4,6.391,6.391,0,0,0,6.4-6.4Z" transform="translate(428.812 124.536)"/>
      </g>
      <g id="Group_29-2" data-name="Group 29" transform="translate(706.869 504) rotate(90)">
        <g id="Group_62" data-name="Group 62" transform="translate(335.98 13.762)">
          <path id="Path_54" data-name="Path 54" class="cls-1" d="M0,132l2.255-2.249L4.5,132l-2.249,2.256Zm7.213-7.206,2.249-2.249,2.255,2.249-2.255,2.255Zm7.206-7.206,2.249-2.255,2.255,2.255-2.255,2.249Zm7.206-7.212,2.255-2.249,2.249,2.249-2.249,2.255Zm7.213-7.206,2.249-2.249,2.255,2.249-2.255,2.256Zm7.206-7.206L38.3,93.705l2.249,2.255L38.3,98.21Zm7.206-7.213L45.505,86.5l2.255,2.249L45.505,91Zm7.213-7.206,2.249-2.255,2.255,2.255L52.711,83.8Zm7.206-7.206,2.255-2.256,2.249,2.256-2.249,2.249Zm7.213-7.213,2.249-2.249,2.255,2.249L67.13,69.379Zm7.206-7.206,2.256-2.255,2.249,2.255-2.249,2.256ZM79.3,52.711l2.249-2.255L83.8,52.711,81.548,54.96ZM86.505,45.5l2.249-2.249L91.01,45.5l-2.255,2.255Zm7.206-7.206,2.255-2.255,2.249,2.255-2.249,2.249Zm7.213-7.206,2.249-2.255,2.255,2.255-2.255,2.249Zm7.206-7.212,2.255-2.249,2.249,2.249-2.249,2.255Zm7.206-7.206,2.255-2.255,2.255,2.255-2.255,2.249Zm7.213-7.206L124.8,7.206l2.255,2.255L124.8,11.711Zm7.206-7.212L132.01,0l2.249,2.249L132.01,4.5Z"/>
        </g>
        <g id="Group_63" data-name="Group 63" transform="translate(456.706 382.561)">
          <path id="Path_55" data-name="Path 55" class="cls-1" d="M0,132l2.255-2.255L4.5,132l-2.249,2.249ZM7.206,124.8l2.255-2.255,2.249,2.255-2.249,2.249Zm7.212-7.213,2.249-2.249,2.255,2.249-2.255,2.256Zm7.206-7.206,2.255-2.255,2.249,2.255-2.249,2.249Zm7.206-7.206,2.255-2.255,2.256,2.255-2.256,2.249Zm7.213-7.213L38.3,93.712l2.249,2.249L38.3,98.216Zm7.206-7.206L45.5,86.5l2.249,2.255L45.5,91.01Zm7.213-7.206,2.249-2.256,2.255,2.256L52.711,83.8Zm7.206-7.213,2.256-2.249,2.249,2.249-2.249,2.256Zm7.206-7.206,2.255-2.255,2.249,2.255-2.249,2.255Zm7.213-7.206,2.249-2.255,2.255,2.255-2.255,2.249ZM79.293,52.7l2.255-2.249L83.8,52.7,81.548,54.96C79.293,52.7,81.548,54.967,79.293,52.7Zm7.213-7.2,2.249-2.255,2.255,2.255-2.255,2.249ZM93.711,38.3l2.255-2.255L98.216,38.3l-2.249,2.249Zm7.206-7.212,2.255-2.249,2.249,2.249-2.249,2.255Zm7.212-7.206,2.25-2.255,2.255,2.255-2.255,2.249Zm7.206-7.212,2.255-2.249,2.249,2.249-2.249,2.255Zm7.213-7.206L124.8,7.213l2.255,2.249L124.8,11.717Zm7.206-7.206L132.01,0l2.249,2.255L132.01,4.5Z"/>
        </g>
        <g id="Group_64" data-name="Group 64" transform="translate(483.332 49.315)">
          <path id="Path_56" data-name="Path 56" class="cls-1" d="M0,132l2.255-2.249L4.5,132l-2.249,2.256Zm7.206-7.206,2.255-2.249,2.249,2.249-2.249,2.256Zm7.213-7.206,2.249-2.255,2.255,2.255-2.255,2.249Zm7.206-7.213,2.256-2.249,2.249,2.249-2.249,2.256Zm7.206-7.206,2.255-2.249,2.255,2.249-2.255,2.256Zm7.212-7.206,2.249-2.255,2.255,2.255L38.292,98.21Zm7.206-7.212L45.5,86.5l2.249,2.249L45.5,91Zm7.213-7.206,2.249-2.256,2.255,2.256-2.255,2.249Zm7.206-7.206,2.255-2.255,2.249,2.255-2.249,2.249Zm7.206-7.213,2.255-2.249,2.249,2.249L67.13,69.379Zm7.212-7.206,2.249-2.256,2.256,2.256-2.256,2.249Zm7.206-7.206,2.255-2.255,2.25,2.255-2.25,2.249ZM86.505,45.5l2.249-2.249L91.01,45.5l-2.256,2.256Zm7.206-7.206,2.249-2.255,2.255,2.255-2.255,2.249Zm7.206-7.212,2.255-2.249,2.256,2.249-2.256,2.256Zm7.213-7.206,2.249-2.249,2.255,2.249-2.255,2.256Zm7.206-7.206,2.256-2.255,2.249,2.255-2.249,2.249Zm7.213-7.213L124.8,7.206l2.255,2.249L124.8,11.711Zm7.206-7.206L132.01,0l2.249,2.249L132.01,4.5Z"/>
        </g>
        <g id="Group_65" data-name="Group 65" transform="translate(333.998 245.014)">
          <path id="Path_57" data-name="Path 57" class="cls-1" d="M0,88.748,2.255,86.5,4.5,88.748,2.255,91Zm7.213-7.206,2.249-2.249,2.255,2.249L9.462,83.8Zm7.206-7.206,2.256-2.255,2.249,2.255-2.249,2.249Zm7.206-7.206,2.255-2.256,2.255,2.256L23.88,69.379Zm7.212-7.213,2.249-2.249,2.256,2.249-2.256,2.255Zm7.206-7.206L38.3,50.456l2.249,2.256L38.3,54.96ZM43.256,45.5,45.5,43.249,47.76,45.5,45.5,47.754Zm7.206-7.206,2.249-2.255,2.255,2.255-2.255,2.256Zm7.206-7.206,2.255-2.255,2.256,2.255-2.256,2.249Zm7.213-7.212,2.249-2.249,2.255,2.249L67.13,26.129Zm7.206-7.206,2.256-2.249,2.249,2.249-2.249,2.255ZM79.3,9.462l2.249-2.256L83.8,9.462l-2.255,2.249Zm7.206-7.212L88.761,0,91.01,2.249,88.761,4.5Z"/>
        </g>
        <g id="Group_66" data-name="Group 66" transform="translate(0 610.832)">
          <path id="Path_58" data-name="Path 58" class="cls-1" d="M0,168.047l2.249-2.256L4.5,168.047,2.249,170.3Zm7.206-7.206,2.255-2.255,2.249,2.255L9.462,163.09Zm7.212-7.212,2.249-2.249,2.255,2.249-2.255,2.255Zm7.206-7.206,2.256-2.249,2.249,2.249-2.249,2.255Zm7.206-7.206,2.256-2.255,2.255,2.255-2.255,2.249ZM36.043,132l2.249-2.249L40.548,132l-2.255,2.255Zm7.206-7.206,2.256-2.255,2.249,2.255L45.5,127.047Zm7.213-7.206,2.249-2.255,2.255,2.255-2.255,2.249Zm7.206-7.212,2.255-2.249,2.249,2.249-2.249,2.255Zm7.206-7.206,2.255-2.255,2.256,2.255-2.256,2.249C64.874,103.173,67.13,105.416,64.874,103.173Zm7.213-7.206,2.249-2.255,2.255,2.255-2.255,2.249Zm7.206-7.213,2.255-2.249L83.8,88.754,81.548,91.01Zm7.212-7.206,2.249-2.256,2.255,2.256L88.754,83.8Zm7.206-7.206,2.249-2.255,2.255,2.255-2.255,2.249C93.711,74.342,95.961,76.585,93.711,74.342Zm7.206-7.212,2.255-2.249,2.249,2.249-2.249,2.255Zm7.212-7.206,2.249-2.255,2.255,2.255-2.255,2.249Zm7.206-7.213,2.255-2.249,2.249,2.249-2.249,2.256Zm7.206-7.206,2.255-2.249,2.256,2.249L124.8,47.761C122.542,45.505,124.8,47.754,122.542,45.505Zm7.213-7.206L132,36.043l2.255,2.255L132,40.548Zm7.206-7.212,2.255-2.249,2.249,2.249-2.249,2.255Zm7.212-7.206,2.249-2.249,2.256,2.249-2.256,2.255Zm7.206-7.206,2.256-2.255,2.249,2.255-2.249,2.249Zm7.212-7.212,2.249-2.249L163.1,9.462l-2.256,2.255ZM165.8,2.256,168.047,0,170.3,2.256l-2.255,2.255Z"/>
        </g>
        <g id="Group_67" data-name="Group 67" transform="translate(137.375)">
          <path id="Path_59" data-name="Path 59" class="cls-1" d="M129.755,132,132,129.748,134.259,132,132,134.253Zm-7.213-7.206,2.256-2.256,2.249,2.256-2.249,2.249Zm-7.206-7.212,2.255-2.249,2.249,2.249-2.249,2.256Zm-7.206-7.206,2.249-2.256,2.255,2.256-2.255,2.249Zm-7.213-7.206,2.256-2.256,2.249,2.256-2.249,2.249Zm-7.206-7.212,2.249-2.249,2.256,2.249-2.256,2.255ZM86.5,88.754,88.754,86.5,91,88.754,88.754,91Zm-7.206-7.213,2.255-2.249L83.8,81.542,81.548,83.8Zm-7.206-7.206,2.249-2.249,2.255,2.249-2.255,2.255ZM64.874,67.13l2.256-2.255,2.249,2.255L67.13,69.379Zm-7.206-7.212,2.249-2.249,2.256,2.249-2.256,2.255Zm-7.212-7.206,2.255-2.249,2.256,2.249-2.256,2.255ZM43.25,45.5l2.255-2.256L47.754,45.5l-2.249,2.249Zm-7.206-7.213,2.249-2.249,2.256,2.249-2.256,2.255Zm-7.213-7.206,2.255-2.249,2.249,2.249-2.249,2.256ZM21.625,23.88l2.249-2.256,2.256,2.256-2.256,2.249Zm-7.213-7.212,2.255-2.249,2.256,2.249-2.256,2.255ZM7.206,9.462,9.462,7.206l2.249,2.255L9.462,11.717ZM0,2.256,2.249,0,4.5,2.256,2.249,4.5Z"/>
        </g>
        <g id="Group_68" data-name="Group 68" transform="translate(344.193 585.69)">
          <path id="Path_60" data-name="Path 60" class="cls-1" d="M158.592,160.841l2.256-2.255,2.249,2.255-2.249,2.249Zm-7.206-7.212,2.249-2.249,2.255,2.249-2.255,2.255Zm-7.213-7.206,2.256-2.255,2.249,2.255-2.249,2.249Zm-7.206-7.213,2.25-2.249,2.255,2.249-2.255,2.256ZM129.755,132l2.256-2.255L134.26,132l-2.249,2.255Zm-7.206-7.206,2.255-2.256,2.249,2.256-2.249,2.249Zm-7.206-7.213,2.249-2.249,2.256,2.249-2.256,2.255Zm-7.213-7.206,2.255-2.255,2.249,2.255-2.249,2.256Zm-7.206-7.206,2.249-2.255,2.256,2.255-2.256,2.249Zm-7.213-7.213,2.255-2.249,2.255,2.249-2.255,2.255Zm-7.206-7.206,2.256-2.249,2.249,2.249L88.761,91.01ZM79.3,81.548l2.249-2.255L83.8,81.548,81.548,83.8Zm-7.213-7.219,2.256-2.249,2.249,2.249-2.249,2.256C72.087,74.329,74.342,76.591,72.087,74.329Zm-7.206-7.2,2.249-2.256,2.255,2.256L67.13,69.385Zm-7.213-7.206,2.255-2.256,2.249,2.256-2.249,2.249Zm-7.206-7.213,2.255-2.249,2.249,2.249-2.249,2.256ZM43.256,45.5,45.5,43.243,47.76,45.5,45.5,47.748C43.256,45.5,45.5,47.754,43.256,45.5Zm-7.212-7.2L38.3,36.043,40.548,38.3,38.3,40.548Zm-7.206-7.213,2.249-2.249,2.255,2.249-2.255,2.256ZM21.625,23.88l2.256-2.255,2.255,2.255L23.88,26.129Zm-7.206-7.212,2.255-2.249,2.249,2.249-2.249,2.255ZM7.213,9.462,9.462,7.212l2.255,2.249L9.462,11.717ZM0,2.255,2.255,0,4.5,2.255,2.255,4.5Z"/>
        </g>
        <g id="Group_69" data-name="Group 69" transform="translate(192.17 374.635)">
          <path id="Path_61" data-name="Path 61" class="cls-1" d="M108.13,110.379l2.249-2.249,2.255,2.249-2.255,2.255Zm-7.213-7.206,2.256-2.256,2.249,2.256-2.249,2.249Zm-7.206-7.213,2.255-2.249,2.249,2.249-2.249,2.256Zm-7.206-7.206,2.249-2.249,2.255,2.249L88.755,91.01Zm-7.212-7.206,2.255-2.255L83.8,81.548,81.548,83.8Zm-7.206-7.219,2.249-2.249,2.256,2.249-2.256,2.256C72.087,74.329,74.336,76.591,72.087,74.329Zm-7.212-7.2,2.255-2.249,2.249,2.249L67.13,69.385Zm-7.206-7.206,2.256-2.256,2.249,2.256-2.249,2.249Zm-7.206-7.213,2.249-2.249,2.255,2.249-2.255,2.256ZM43.25,45.5l2.256-2.255L47.754,45.5l-2.249,2.255C43.25,45.5,45.505,47.76,43.25,45.5Zm-7.206-7.2,2.249-2.255L40.548,38.3l-2.256,2.249Zm-7.213-7.213,2.256-2.249,2.255,2.249-2.255,2.255ZM21.625,23.88l2.256-2.255L26.13,23.88,23.88,26.136Zm-7.206-7.206,2.249-2.256,2.255,2.256-2.255,2.249ZM7.206,9.462,9.462,7.212l2.249,2.249L9.462,11.717ZM0,2.255,2.249,0,4.5,2.255,2.249,4.511Z"/>
        </g>
        <g id="Group_70" data-name="Group 70" transform="translate(260.223 619.535)">
          <path id="Path_62" data-name="Path 62" class="cls-1" d="M72.087,74.342l2.249-2.255,2.255,2.255-2.255,2.249ZM64.874,67.13l2.256-2.249,2.249,2.249L67.13,69.385Zm-7.206-7.213,2.249-2.256,2.255,2.256-2.255,2.249C57.668,59.917,59.917,62.173,57.668,59.917Zm-7.213-7.206,2.256-2.249,2.249,2.249-2.249,2.256ZM43.25,45.505l2.255-2.249,2.249,2.249-2.249,2.255ZM36.043,38.3l2.249-2.255L40.548,38.3l-2.256,2.249Zm-7.212-7.213,2.255-2.249,2.249,2.249-2.249,2.256ZM21.625,23.88l2.249-2.256,2.256,2.256L23.874,26.13Zm-7.212-7.206,2.255-2.255,2.249,2.255-2.249,2.249ZM7.206,9.462,9.462,7.213l2.249,2.249L9.462,11.717ZM0,2.256,2.249,0,4.5,2.256,2.249,4.511Z"/>
        </g>
        <g id="Group_71" data-name="Group 71" transform="translate(420.841 326.142)">
          <path id="Path_63" data-name="Path 63" class="cls-1" d="M0,23.874l2.249-2.249L4.5,23.874,2.249,26.129Zm7.206-7.206,2.255-2.255,2.249,2.255L9.462,18.917Zm7.213-7.212,2.249-2.249,2.255,2.249-2.255,2.256Zm7.206-7.206L23.88,0l2.249,2.249L23.88,4.5Z"/>
        </g>
      </g>
    </g>
  </g>
</svg>
